static_grf.mot
version=1
nRows=15
nColumns 19
inDegrees=yes
endheader
time	1_ground_force_vx	1_ground_force_vy	1_ground_force_vz	1_ground_force_px	1_ground_force_py	1_ground_force_pz	1_ground_torque_x	1_ground_torque_y	1_ground_torque_z	2_ground_force_vx	2_ground_force_vy	2_ground_force_vz	2_ground_force_px	2_ground_force_py	2_ground_force_pz	2_ground_torque_x	2_ground_torque_y	2_ground_torque_z
            1.212500	           -1.855692	          268.627948	           -6.410074	           -0.332188	            0.006422	           -0.455915	           -0.007270	            1.052446	           -0.025114	            1.575311	          291.306530	            8.218352	           -0.329377	            0.005113	           -0.646834	           -0.002435	           -0.450254	           -0.012703
            1.213000	           -1.809556	          268.267033	           -6.320022	           -0.332111	            0.006422	           -0.456029	           -0.006659	            0.987133	           -0.023256	            1.247259	          291.306182	            7.983851	           -0.329580	            0.005112	           -0.646701	           -0.001535	           -0.358468	           -0.009825
            1.213500	           -1.901242	          268.267015	           -6.319794	           -0.332264	            0.006422	           -0.456031	           -0.007135	            1.006797	           -0.023718	            1.578573	          290.386267	            8.074282	           -0.329818	            0.005109	           -0.645982	           -0.002300	           -0.423011	           -0.011762
            1.214000	           -1.901128	          268.266818	           -6.273938	           -0.332052	            0.006423	           -0.456165	           -0.007352	            1.037422	           -0.024262	            1.575332	          291.306362	            8.265280	           -0.329440	            0.005112	           -0.646448	           -0.002519	           -0.465735	           -0.013214
            1.214500	           -2.038265	          267.365101	           -6.185750	           -0.332630	            0.006427	           -0.457108	           -0.007153	            0.938344	           -0.021709	            1.480885	          291.490834	            8.078264	           -0.329123	            0.005114	           -0.646952	           -0.002263	           -0.445347	           -0.012342
            1.215000	           -1.809376	          267.906305	           -6.275712	           -0.332386	            0.006424	           -0.456362	           -0.006646	            0.984065	           -0.023052	            1.388515	          291.122214	            8.076990	           -0.329445	            0.005113	           -0.646842	           -0.001827	           -0.383128	           -0.010630
            1.215500	           -1.992619	          268.446704	           -6.181226	           -0.332076	            0.006422	           -0.455875	           -0.007296	            0.982932	           -0.022633	            1.528358	          291.307197	            7.983731	           -0.329315	            0.005112	           -0.646576	           -0.002297	           -0.437848	           -0.012000
            1.216000	           -1.946207	          268.445729	           -5.952060	           -0.331934	            0.006423	           -0.456117	           -0.007019	            0.968083	           -0.021465	            1.388494	          291.122382	            8.030062	           -0.329312	            0.005113	           -0.646844	           -0.002027	           -0.424896	           -0.011720
            1.216500	           -1.809214	          268.266443	           -6.182454	           -0.331902	            0.006424	           -0.456358	           -0.006801	            1.008430	           -0.023240	            1.390447	          290.570233	            7.934234	           -0.329369	            0.005111	           -0.646229	           -0.001908	           -0.398774	           -0.010889
            1.217000	           -2.084110	          268.626528	           -6.088514	           -0.332239	            0.006422	           -0.455935	           -0.007421	            0.956510	           -0.021680	            1.250644	          290.384916	            8.121349	           -0.330012	            0.005109	           -0.646433	           -0.001822	           -0.423110	           -0.011833
            1.217500	           -1.993449	          268.628315	           -6.501445	           -0.332010	            0.006422	           -0.456000	           -0.007043	            0.949105	           -0.022971	            1.431980	          292.043589	            7.939471	           -0.329073	            0.005117	           -0.647625	           -0.002018	           -0.411489	           -0.011187
            1.218000	           -1.579739	          268.085859	           -6.092084	           -0.331931	            0.006423	           -0.456266	           -0.006000	            1.018234	           -0.023139	            1.575914	          291.122891	            8.076910	           -0.329374	            0.005113	           -0.646716	           -0.002467	           -0.455771	           -0.012645
            1.218500	           -2.176168	          267.545899	           -6.322204	           -0.332018	            0.006426	           -0.456787	           -0.007861	            0.966482	           -0.022838	            1.625340	          290.387106	            7.886550	           -0.329234	            0.005112	           -0.646501	           -0.002443	           -0.436455	           -0.011854
            1.219000	           -1.901437	          268.087173	           -6.412279	           -0.332049	            0.006423	           -0.456181	           -0.007126	            1.004705	           -0.024031	            1.338986	          291.858775	            8.032710	           -0.328813	            0.005117	           -0.647249	           -0.001715	           -0.373880	           -0.010290
            1.219500	           -2.038576	          268.446891	           -6.226968	           -0.331947	            0.006423	           -0.456092	           -0.007208	            0.949112	           -0.022016	            1.482297	          291.121883	            8.264662	           -0.329246	            0.005114	           -0.646909	           -0.002173	           -0.426724	           -0.012114
